<svg width="64" height="64" viewBox="0 0 64 64" fill="none" xmlns="http://www.w3.org/2000/svg">
<path d="M59.25 14.5H4.75C3.64543 14.5 2.75 15.3954 2.75 16.5V47.5C2.75 48.6046 3.64543 49.5 4.75 49.5H59.25C60.3546 49.5 61.25 48.6046 61.25 47.5V16.5C61.25 15.3954 60.3546 14.5 59.25 14.5Z" stroke="black" stroke-width="1.5"/>
<path d="M51 43L61 43" stroke="black" stroke-width="1.5" stroke-miterlimit="10" stroke-linecap="round"/>
<path fill-rule="evenodd" clip-rule="evenodd" d="M7.75 20.75C7.75 20.1977 8.19772 19.75 8.75 19.75H45.25C45.8023 19.75 46.25 20.1977 46.25 20.75V43.25C46.25 43.8023 45.8023 44.25 45.25 44.25H8.75C8.19772 44.25 7.75 43.8023 7.75 43.25V20.75Z" stroke="black" stroke-width="1.5" stroke-linecap="round" stroke-linejoin="round"/>
<path d="M56.1992 29.0508C56.7515 29.0508 57.1992 28.6031 57.1992 28.0508C57.1992 27.4985 56.7515 27.0508 56.1992 27.0508C55.6469 27.0508 55.1992 27.4985 55.1992 28.0508C55.1992 28.6031 55.6469 29.0508 56.1992 29.0508Z" fill="black"/>
<path d="M56.1992 33C56.7515 33 57.1992 32.5523 57.1992 32C57.1992 31.4477 56.7515 31 56.1992 31C55.6469 31 55.1992 31.4477 55.1992 32C55.1992 32.5523 55.6469 33 56.1992 33Z" fill="black"/>
<path d="M56.1992 36.9492C56.7515 36.9492 57.1992 36.5015 57.1992 35.9492C57.1992 35.3969 56.7515 34.9492 56.1992 34.9492C55.6469 34.9492 55.1992 35.3969 55.1992 35.9492C55.1992 36.5015 55.6469 36.9492 56.1992 36.9492Z" fill="black"/>
<path d="M50.8203 14.5V49.13" stroke="black" stroke-width="1.5" stroke-miterlimit="10" stroke-linecap="round"/>
<path d="M54.3906 21.3516H57.8006" stroke="black" stroke-width="1.5" stroke-miterlimit="10" stroke-linecap="round"/>
</svg>
