<svg width="64" height="64" viewBox="0 0 64 64" fill="none" xmlns="http://www.w3.org/2000/svg">
<path fill-rule="evenodd" clip-rule="evenodd" d="M10 9.5H28C28.2761 9.5 28.5 9.72386 28.5 10V28C28.5 28.2761 28.2761 28.5 28 28.5H10C9.72386 28.5 9.5 28.2761 9.5 28V10C9.5 9.72386 9.72386 9.5 10 9.5ZM8 10C8 8.89543 8.89543 8 10 8H28C29.1046 8 30 8.89543 30 10V28C30 29.1046 29.1046 30 28 30H10C8.89543 30 8 29.1046 8 28V10ZM10 35.5H28C28.2761 35.5 28.5 35.7239 28.5 36V54C28.5 54.2761 28.2761 54.5 28 54.5H10C9.72386 54.5 9.5 54.2761 9.5 54V36C9.5 35.7239 9.72386 35.5 10 35.5ZM8 36C8 34.8954 8.89543 34 10 34H28C29.1046 34 30 34.8954 30 36V54C30 55.1046 29.1046 56 28 56H10C8.89543 56 8 55.1046 8 54V36ZM54 9.5H36C35.7239 9.5 35.5 9.72386 35.5 10V28C35.5 28.2761 35.7239 28.5 36 28.5H54C54.2761 28.5 54.5 28.2761 54.5 28V10C54.5 9.72386 54.2761 9.5 54 9.5ZM36 8C34.8954 8 34 8.89543 34 10V28C34 29.1046 34.8954 30 36 30H54C55.1046 30 56 29.1046 56 28V10C56 8.89543 55.1046 8 54 8H36ZM36 35.5H54C54.2761 35.5 54.5 35.7239 54.5 36V54C54.5 54.2761 54.2761 54.5 54 54.5H36C35.7239 54.5 35.5 54.2761 35.5 54V36C35.5 35.7239 35.7239 35.5 36 35.5ZM34 36C34 34.8954 34.8954 34 36 34H54C55.1046 34 56 34.8954 56 36V54C56 55.1046 55.1046 56 54 56H36C34.8954 56 34 55.1046 34 54V36Z" fill="black"/>
</svg>
