<svg width="64" height="64" viewBox="0 0 64 64" fill="none" xmlns="http://www.w3.org/2000/svg">
<g clip-path="url(#clip0_1456_172911)">
<path d="M52.5 2.75H11.5003C10.3958 2.75 9.50033 3.64542 9.50033 4.74999L9.50001 59.25C9.50001 60.3546 10.3954 61.25 11.5 61.25H52.5C53.6046 61.25 54.5 60.3546 54.5 59.25V4.75C54.5 3.64543 53.6046 2.75 52.5 2.75Z" stroke="black" stroke-width="1.5"/>
<path d="M9.5 11.5195H54.5" stroke="black" stroke-width="1.5"/>
<path d="M35 7H29" stroke="black" stroke-width="1.5" stroke-linecap="round"/>
<path d="M49.0015 22L15 22C13.8954 22 13 22.8955 13 24V55C13 56.1046 13.8954 57 15 57H49.0015C50.1061 57 51.0015 56.1046 51.0015 55V24C51.0015 22.8954 50.1061 22 49.0015 22Z" stroke="black" stroke-width="1.5"/>
<path d="M51 50H19.5H13" stroke="black" stroke-width="1.5" stroke-miterlimit="10" stroke-linecap="round"/>
<path d="M28.0095 52.8627C33.2183 52.8627 37.4408 48.6401 37.4408 43.4313C37.4408 38.2226 33.2183 34 28.0095 34C22.8007 34 18.5781 38.2226 18.5781 43.4313C18.5781 48.6401 22.8007 52.8627 28.0095 52.8627Z" stroke="black" stroke-width="1.5" stroke-miterlimit="10"/>
<path d="M32.25 34.7714C33.3972 34.2751 34.6624 34 35.9918 34C41.2006 34 45.4232 38.2226 45.4232 43.4313C45.4232 48.6401 41.2006 52.8627 35.9918 52.8627C34.6624 52.8627 33.3972 52.5876 32.25 52.0913" stroke="black" stroke-width="1.5" stroke-miterlimit="10"/>
<path d="M28.0124 47.6937C30.3665 47.6937 32.2748 45.7854 32.2748 43.4313C32.2748 41.0773 30.3665 39.1689 28.0124 39.1689C25.6583 39.1689 23.75 41.0773 23.75 43.4313C23.75 45.7854 25.6583 47.6937 28.0124 47.6937Z" stroke="black" stroke-width="1.5" stroke-miterlimit="10"/>
</g>
<defs>
<clipPath id="clip0_1456_172911">
<rect width="46.5" height="60" fill="white" transform="translate(8.75 2)"/>
</clipPath>
</defs>
</svg>
