<svg width="64" height="64" viewBox="0 0 64 64" fill="none" xmlns="http://www.w3.org/2000/svg">
<path fill-rule="evenodd" clip-rule="evenodd" d="M9 4.75C9 3.23122 10.2312 2 11.75 2H52.25C53.7688 2 55 3.23122 55 4.75V14.9804L55.0003 15L55 15.0196V59.25C55 60.7688 53.7688 62 52.25 62H11.75C10.2312 62 9 60.7688 9 59.25V15V4.75ZM53.5 4.75V14.25H10.5V4.75C10.5 4.05964 11.0596 3.5 11.75 3.5H52.25C52.9404 3.5 53.5 4.05964 53.5 4.75ZM10.5 59.25V15.75H53.5V59.25C53.5 59.9404 52.9404 60.5 52.25 60.5H11.75C11.0596 60.5 10.5 59.9404 10.5 59.25ZM30.25 8.89404C30.25 7.92804 31.034 7.14404 32 7.14404C32.966 7.14404 33.75 7.92804 33.75 8.89404C33.75 9.86004 32.966 10.644 32 10.644C31.034 10.644 30.25 9.86004 30.25 8.89404ZM32 22.75C23.0254 22.75 15.75 30.0254 15.75 39C15.75 47.9746 23.0254 55.25 32 55.25C40.9746 55.25 48.25 47.9746 48.25 39C48.25 30.0254 40.9746 22.75 32 22.75ZM14.25 39C14.25 29.1969 22.1969 21.25 32 21.25C41.8031 21.25 49.75 29.1969 49.75 39C49.75 48.8031 41.8031 56.75 32 56.75C22.1969 56.75 14.25 48.8031 14.25 39ZM28.4144 37.7272C28.4144 36.0682 29.2996 35.1028 30.3272 34.5145C31.3945 33.9035 32.5465 33.75 32.7945 33.75C33.1285 33.75 34.3859 33.7508 35.7347 34.4405C37.0527 35.1144 38.5321 36.4836 39.2736 39.3685C39.3767 39.7697 39.7855 40.0113 40.1867 39.9082C40.5879 39.8051 40.8295 39.3963 40.7264 38.9951C39.879 35.6983 38.1221 33.9765 36.4177 33.105C34.7457 32.25 33.1961 32.25 32.7955 32.25H32.7945C32.3096 32.25 30.8965 32.4601 29.582 33.2128C28.2277 33.9881 26.9144 35.3863 26.9144 37.7272C26.9144 39.5697 27.6681 40.7137 28.6116 41.367C29.5072 41.9871 30.4961 42.1136 30.9623 42.1136C31.3398 42.1136 31.7911 42.0412 32.2125 41.8581C32.6351 41.6744 33.08 41.3546 33.3374 40.8308C33.5201 40.4591 33.3669 40.0096 32.9951 39.8269C32.6234 39.6442 32.1739 39.7975 31.9912 40.1692C31.9362 40.2812 31.82 40.3931 31.6147 40.4824C31.4083 40.5721 31.1648 40.6136 30.9623 40.6136C30.6956 40.6136 30.0355 40.5285 29.4655 40.1337C28.9432 39.7721 28.4144 39.0979 28.4144 37.7272ZM36.4783 38.3051C36.0012 37.2451 35.0328 36.4907 33.9921 36.1793C32.9468 35.8665 31.7213 35.9749 30.7996 36.8064C30.492 37.0838 30.4676 37.5581 30.745 37.8656C31.0225 38.1732 31.4967 38.1976 31.8043 37.9202C32.2475 37.5204 32.891 37.4155 33.5621 37.6163C34.2377 37.8185 34.8331 38.3045 35.1105 38.9208C35.3215 39.3894 35.4472 40.0221 35.3471 40.9165C35.1992 42.2368 34.4014 43.0537 33.4471 43.5667C32.4694 44.0922 31.4029 44.25 30.9623 44.25C30.4754 44.25 29.1465 44.1665 27.8309 43.4729C26.5495 42.7974 25.2371 41.5238 24.7352 39.0336C24.6534 38.6276 24.2579 38.3648 23.8518 38.4466C23.4458 38.5284 23.1829 38.9239 23.2648 39.33C23.8622 42.2943 25.4813 43.9299 27.1314 44.7998C28.7473 45.6517 30.3499 45.75 30.9623 45.75C31.621 45.75 32.9364 45.5442 34.1573 44.8879C35.4016 44.219 36.6191 43.0359 36.8377 41.0835C36.9633 39.9621 36.8151 39.0532 36.4783 38.3051Z" fill="black"/>
</svg>
