<svg width="64" height="64" viewBox="0 0 64 64" fill="none" xmlns="http://www.w3.org/2000/svg">
<path fill-rule="evenodd" clip-rule="evenodd" d="M3.5 21.4813C3.5 21.0539 3.95847 20.5 4.8026 20.5H59.1964C60.0406 20.5 60.499 21.0539 60.499 21.4813V38.6593H31.9995H3.5V21.4813ZM56.0268 40.1593H60.499V43.0187C60.499 43.4461 60.0406 44 59.1964 44H56.0268V40.1593ZM54.5268 40.1593H31.9995H9.47656V44H54.5268V40.1593ZM7.97656 44V40.1593H3.5V43.0187C3.5 43.4461 3.95847 44 4.8026 44H7.97656ZM4.8026 19C3.37949 19 2 19.9963 2 21.4813V39.4093V43.0187C2 44.5037 3.37949 45.5 4.8026 45.5H59.1964C60.6196 45.5 61.999 44.5037 61.999 43.0187V39.4093V21.4813C61.999 19.9963 60.6196 19 59.1964 19H4.8026ZM48.9336 31C48.5194 31 48.1836 31.3358 48.1836 31.75C48.1836 32.1642 48.5194 32.5 48.9336 32.5H56.9336C57.3478 32.5 57.6836 32.1642 57.6836 31.75C57.6836 31.3358 57.3478 31 56.9336 31H48.9336ZM48.1836 34.75C48.1836 34.3358 48.5194 34 48.9336 34H56.9336C57.3478 34 57.6836 34.3358 57.6836 34.75C57.6836 35.1642 57.3478 35.5 56.9336 35.5H48.9336C48.5194 35.5 48.1836 35.1642 48.1836 34.75Z" fill="black"/>
</svg>
