<svg width="64" height="64" viewBox="0 0 64 64" fill="none" xmlns="http://www.w3.org/2000/svg">
<path fill-rule="evenodd" clip-rule="evenodd" d="M25.998 1.99988C24.4793 1.99988 23.248 3.23109 23.248 4.74988V7.00706H16.9994C14.3755 7.00706 12.2499 9.13262 12.2499 11.7565V27.9278V55.2509C12.2499 58.9747 15.2753 62.0001 18.9991 62.0001H44.9957C48.7195 62.0001 51.745 58.9747 51.745 55.2509V27.9278V11.7565C51.745 9.13262 49.6194 7.00706 46.9955 7.00706H40.746V4.74988C40.746 3.2311 39.5147 1.99988 37.996 1.99988H25.998ZM40.746 8.50706V27.1778H50.245V11.7565C50.245 9.96104 48.791 8.50706 46.9955 8.50706H40.746ZM39.246 27.1778V4.74988C39.246 4.05952 38.6863 3.49988 37.996 3.49988H25.998C25.3077 3.49988 24.748 4.05952 24.748 4.74988V27.1778H39.246ZM23.248 27.1778V8.50706H16.9994C15.2039 8.50706 13.7499 9.96104 13.7499 11.7565V27.1778H23.248ZM37.7468 28.6778H50.245V55.2509C50.245 58.1462 47.8911 60.5001 44.9957 60.5001H18.9991C16.1038 60.5001 13.7499 58.1462 13.7499 55.2509V28.6778H26.2481V31.2834C26.2481 32.3876 27.1625 33.2343 28.2292 33.2343H35.7657C36.8516 33.2343 37.7468 32.3688 37.7468 31.2834V28.6778ZM36.2468 28.6778H27.7481V31.2834C27.7481 31.5159 27.947 31.7343 28.2292 31.7343H35.7657C36.05 31.7343 36.2468 31.5138 36.2468 31.2834V28.6778ZM31.4683 36.7314C31.7612 36.4385 32.2361 36.4385 32.529 36.7314C33.9411 38.1435 35.7083 40.4389 35.7083 43.151C35.7083 45.1933 34.0543 46.8606 31.9987 46.8606C29.9447 46.8606 28.2891 45.205 28.2891 43.151C28.2891 40.4466 30.1493 38.0505 31.4683 36.7314ZM32.0004 38.3542C30.8892 39.6107 29.7891 41.3616 29.7891 43.151C29.7891 44.3765 30.7731 45.3606 31.9987 45.3606C33.2226 45.3606 34.2083 44.3682 34.2083 43.151C34.2083 41.3388 33.1588 39.6498 32.0004 38.3542Z" fill="black"/>
</svg>
