<svg width="64" height="64" viewBox="0 0 64 64" fill="none" xmlns="http://www.w3.org/2000/svg">
<g clip-path="url(#clip0_1456_171084)">
<path d="M6.65 53.3996C7.14706 53.3996 7.55 52.9967 7.55 52.4996C7.55 52.0026 7.14706 51.5996 6.65 51.5996C6.15294 51.5996 5.75 52.0026 5.75 52.4996C5.75 52.9967 6.15294 53.3996 6.65 53.3996Z" fill="black"/>
<path d="M10.1656 53.3996C10.6627 53.3996 11.0656 52.9967 11.0656 52.4996C11.0656 52.0026 10.6627 51.5996 10.1656 51.5996C9.66857 51.5996 9.26562 52.0026 9.26562 52.4996C9.26562 52.9967 9.66857 53.3996 10.1656 53.3996Z" fill="black"/>
<path d="M13.6813 53.3996C14.1783 53.3996 14.5813 52.9967 14.5813 52.4996C14.5813 52.0026 14.1783 51.5996 13.6813 51.5996C13.1842 51.5996 12.7812 52.0026 12.7812 52.4996C12.7812 52.9967 13.1842 53.3996 13.6813 53.3996Z" fill="black"/>
<path d="M17.1969 53.3996C17.6939 53.3996 18.0969 52.9967 18.0969 52.4996C18.0969 52.0026 17.6939 51.5996 17.1969 51.5996C16.6998 51.5996 16.2969 52.0026 16.2969 52.4996C16.2969 52.9967 16.6998 53.3996 17.1969 53.3996Z" fill="black"/>
<path d="M59.25 49.5H4.75C3.64543 49.5 2.75 50.3954 2.75 51.5V53.5C2.75 54.6046 3.64543 55.5 4.75 55.5H59.25C60.3546 55.5 61.25 54.6046 61.25 53.5V51.5C61.25 50.3954 60.3546 49.5 59.25 49.5Z" stroke="black" stroke-width="1.5" stroke-miterlimit="10"/>
<path d="M46.7984 53.3996C47.2955 53.3996 47.6984 52.9967 47.6984 52.4996C47.6984 52.0026 47.2955 51.5996 46.7984 51.5996C46.3014 51.5996 45.8984 52.0026 45.8984 52.4996C45.8984 52.9967 46.3014 53.3996 46.7984 53.3996Z" fill="black"/>
<path d="M50.3219 53.3996C50.8189 53.3996 51.2219 52.9967 51.2219 52.4996C51.2219 52.0026 50.8189 51.5996 50.3219 51.5996C49.8248 51.5996 49.4219 52.0026 49.4219 52.4996C49.4219 52.9967 49.8248 53.3996 50.3219 53.3996Z" fill="black"/>
<path d="M53.8297 53.3996C54.3267 53.3996 54.7297 52.9967 54.7297 52.4996C54.7297 52.0026 54.3267 51.5996 53.8297 51.5996C53.3326 51.5996 52.9297 52.0026 52.9297 52.4996C52.9297 52.9967 53.3326 53.3996 53.8297 53.3996Z" fill="black"/>
<path d="M57.3531 53.3996C57.8502 53.3996 58.2531 52.9967 58.2531 52.4996C58.2531 52.0026 57.8502 51.5996 57.3531 51.5996C56.8561 51.5996 56.4531 52.0026 56.4531 52.4996C56.4531 52.9967 56.8561 53.3996 57.3531 53.3996Z" fill="black"/>
<path d="M59.25 8.5H4.75C3.64543 8.5 2.75 9.39543 2.75 10.5V42.5C2.75 43.6046 3.64543 44.5 4.75 44.5H59.25C60.3546 44.5 61.25 43.6046 61.25 42.5V10.5C61.25 9.39543 60.3546 8.5 59.25 8.5Z" stroke="black" stroke-width="1.5" stroke-miterlimit="10"/>
</g>
<defs>
<clipPath id="clip0_1456_171084">
<rect width="60" height="48.5" fill="white" transform="translate(2 7.75)"/>
</clipPath>
</defs>
</svg>
